G04 ================== begin FILE IDENTIFICATION RECORD ==================*
G04 Layout Name:  ASD.brd*
G04 Film Name:    FAB*
G04 File Format:  Gerber RS274X*
G04 File Origin:  Cadence Allegro 17.2-S025*
G04 Origin Date:  Sun Dec 29 17:53:06 2024*
G04 *
G04 Layer:  MANUFACTURING/NCDRILL_LEGEND*
G04 Layer:  MANUFACTURING/NCDRILL_FIGURE*
G04 Layer:  MANUFACTURING/XSECTION_CHART*
G04 Layer:  MANUFACTURING/NCLEGEND-1-2*
G04 Layer:  DRAWING FORMAT/OUTLINE*
G04 *
G04 Offset:    (0.00 0.00)*
G04 Mirror:    No*
G04 Mode:      Positive*
G04 Rotation:  0*
G04 FullContactRelief:  No*
G04 UndefLineWidth:     0.00*
G04 ================== end FILE IDENTIFICATION RECORD ====================*
%FSLAX25Y25*MOIN*%
%IR0*IPPOS*OFA0.00000B0.00000*MIA0B0*SFA1.00000B1.00000*%
%AMMACRO10*
1,1,0.0,.025,0.0*
20,1,0.0,.025,0.0,.02462,-.004341,0.0*
1,1,0.0,.02462,-.004341*
20,1,0.0,.02462,-.004341,.023492,-.008551,0.0*
1,1,0.0,.023492,-.008551*
20,1,0.0,.023492,-.008551,.021651,-.0125,0.0*
1,1,0.0,.021651,-.0125*
20,1,0.0,.021651,-.0125,.019151,-.01607,0.0*
1,1,0.0,.019151,-.01607*
20,1,0.0,.019151,-.01607,.01607,-.019151,0.0*
1,1,0.0,.01607,-.019151*
20,1,0.0,.01607,-.019151,.0125,-.021651,0.0*
1,1,0.0,.0125,-.021651*
20,1,0.0,.0125,-.021651,.008551,-.023492,0.0*
1,1,0.0,.008551,-.023492*
20,1,0.0,.008551,-.023492,.004341,-.02462,0.0*
1,1,0.0,.004341,-.02462*
20,1,0.0,.004341,-.02462,0.0,-.025,0.0*
1,1,0.0,0.0,-.025*
20,1,0.0,0.0,-.025,-.004341,-.02462,0.0*
1,1,0.0,-.004341,-.02462*
20,1,0.0,-.004341,-.02462,-.008551,-.023492,0.0*
1,1,0.0,-.008551,-.023492*
20,1,0.0,-.008551,-.023492,-.0125,-.021651,0.0*
1,1,0.0,-.0125,-.021651*
20,1,0.0,-.0125,-.021651,-.01607,-.019151,0.0*
1,1,0.0,-.01607,-.019151*
20,1,0.0,-.01607,-.019151,-.019151,-.01607,0.0*
1,1,0.0,-.019151,-.01607*
20,1,0.0,-.019151,-.01607,-.021651,-.0125,0.0*
1,1,0.0,-.021651,-.0125*
20,1,0.0,-.021651,-.0125,-.023492,-.008551,0.0*
1,1,0.0,-.023492,-.008551*
20,1,0.0,-.023492,-.008551,-.02462,-.004341,0.0*
1,1,0.0,-.02462,-.004341*
20,1,0.0,-.02462,-.004341,-.025,0.0,0.0*
1,1,0.0,-.025,0.0*
20,1,0.0,-.025,0.0,-.02462,.004341,0.0*
1,1,0.0,-.02462,.004341*
20,1,0.0,-.02462,.004341,-.023492,.008551,0.0*
1,1,0.0,-.023492,.008551*
20,1,0.0,-.023492,.008551,-.021651,.0125,0.0*
1,1,0.0,-.021651,.0125*
20,1,0.0,-.021651,.0125,-.019151,.01607,0.0*
1,1,0.0,-.019151,.01607*
20,1,0.0,-.019151,.01607,-.01607,.019151,0.0*
1,1,0.0,-.01607,.019151*
20,1,0.0,-.01607,.019151,-.0125,.021651,0.0*
1,1,0.0,-.0125,.021651*
20,1,0.0,-.0125,.021651,-.008551,.023492,0.0*
1,1,0.0,-.008551,.023492*
20,1,0.0,-.008551,.023492,-.004341,.02462,0.0*
1,1,0.0,-.004341,.02462*
20,1,0.0,-.004341,.02462,0.0,.025,0.0*
1,1,0.0,0.0,.025*
20,1,0.0,0.0,.025,.004341,.02462,0.0*
1,1,0.0,.004341,.02462*
20,1,0.0,.004341,.02462,.008551,.023492,0.0*
1,1,0.0,.008551,.023492*
20,1,0.0,.008551,.023492,.0125,.021651,0.0*
1,1,0.0,.0125,.021651*
20,1,0.0,.0125,.021651,.01607,.019151,0.0*
1,1,0.0,.01607,.019151*
20,1,0.0,.01607,.019151,.019151,.01607,0.0*
1,1,0.0,.019151,.01607*
20,1,0.0,.019151,.01607,.021651,.0125,0.0*
1,1,0.0,.021651,.0125*
20,1,0.0,.021651,.0125,.023492,.008551,0.0*
1,1,0.0,.023492,.008551*
20,1,0.0,.023492,.008551,.02462,.004341,0.0*
1,1,0.0,.02462,.004341*
20,1,0.0,.02462,.004341,.025,0.0,0.0*
1,1,0.0,.025,0.0*
1,1,0.0,.0125,0.0*
20,1,0.0,.0125,0.0,-.0125,0.0,0.0*
1,1,0.0,-.0125,0.0*
1,1,0.0,0.0,.0125*
20,1,0.0,0.0,.0125,0.0,-.0125,0.0*
1,1,0.0,0.0,-.0125*
%
%ADD10MACRO10*%
%ADD11C,.005*%
G75*
%LPD*%
G75*
G36*
G01X-118000Y155879D02*
Y132839D01*
X-115500D01*
Y-20761D01*
X-118000D01*
Y-43801D01*
X-103000D01*
Y-20761D01*
X-105500D01*
Y132839D01*
X-103000D01*
Y155879D01*
X-118000D01*
G37*
G36*
G01X-138000Y-43801D02*
Y-20761D01*
X-78000D01*
Y-43801D01*
X-138000D01*
G37*
G36*
G01Y132839D02*
Y155879D01*
X-78000D01*
Y132839D01*
X-138000D01*
G37*
G54D10*
X11160Y119400D03*
X47720Y10480D03*
X47480Y91920D03*
X58080Y69720D03*
X83200Y94760D03*
X111137Y140623D03*
X202110Y-106340D03*
G54D11*
G01X-136087Y-53217D02*
Y-50717D01*
X-135553D01*
X-135340Y-50842D01*
X-135180Y-51009D01*
X-135047Y-51259D01*
X-134940Y-51550D01*
X-134913Y-51967D01*
X-134940Y-52384D01*
X-135047Y-52675D01*
X-135180Y-52925D01*
X-135340Y-53092D01*
X-135553Y-53217D01*
X-136087D01*
G01X-132767D02*
X-133833D01*
Y-50717D01*
X-132767D01*
G01X-133193Y-51925D02*
X-133833D01*
G01X-131660Y-52884D02*
X-131447Y-53092D01*
X-131207Y-53217D01*
X-130993D01*
X-130780Y-53092D01*
X-130620Y-52884D01*
X-130540Y-52592D01*
X-130593Y-52300D01*
X-130727Y-52050D01*
X-130967Y-51884D01*
X-131287Y-51800D01*
X-131473Y-51634D01*
X-131553Y-51342D01*
X-131500Y-51050D01*
X-131367Y-50842D01*
X-131180Y-50717D01*
X-130993D01*
X-130807Y-50800D01*
X-130647Y-51009D01*
G01X-129220Y-50717D02*
X-128580D01*
G01X-128900D02*
Y-53217D01*
G01X-129220D02*
X-128580D01*
G01X-126540Y-51967D02*
X-126007D01*
Y-52717D01*
X-126167Y-52967D01*
X-126353Y-53134D01*
X-126620Y-53217D01*
X-126887Y-53134D01*
X-127073Y-52967D01*
X-127233Y-52717D01*
X-127340Y-52425D01*
X-127393Y-52092D01*
Y-51800D01*
X-127340Y-51550D01*
X-127233Y-51259D01*
X-127073Y-51009D01*
X-126913Y-50842D01*
X-126700Y-50717D01*
X-126513D01*
X-126300Y-50800D01*
X-126140Y-50967D01*
G01X-125113Y-53217D02*
Y-50717D01*
X-123887Y-53217D01*
Y-50717D01*
G01X-119513Y-50925D02*
X-119673Y-50800D01*
X-119860Y-50717D01*
X-120073D01*
X-120313Y-50842D01*
X-120500Y-51050D01*
X-120633Y-51300D01*
X-120740Y-51717D01*
X-120767Y-52092D01*
X-120713Y-52467D01*
X-120633Y-52717D01*
X-120473Y-52967D01*
X-120287Y-53134D01*
X-120100Y-53217D01*
X-119913D01*
X-119727Y-53134D01*
X-119567Y-53009D01*
X-119433Y-52842D01*
G01X-118433Y-53217D02*
Y-50717D01*
X-117767D01*
X-117553Y-50842D01*
X-117420Y-51009D01*
X-117367Y-51342D01*
X-117420Y-51675D01*
X-117580Y-51884D01*
X-117767Y-52009D01*
X-118433D01*
G01X-117767D02*
X-117367Y-53217D01*
G01X-115700D02*
X-115913Y-53175D01*
X-116100Y-53009D01*
X-116260Y-52759D01*
X-116367Y-52467D01*
X-116420Y-52134D01*
Y-51800D01*
X-116367Y-51467D01*
X-116260Y-51175D01*
X-116100Y-50925D01*
X-115913Y-50759D01*
X-115700Y-50717D01*
X-115487Y-50759D01*
X-115300Y-50925D01*
X-115140Y-51175D01*
X-115033Y-51467D01*
X-114980Y-51800D01*
Y-52134D01*
X-115033Y-52467D01*
X-115140Y-52759D01*
X-115300Y-53009D01*
X-115487Y-53175D01*
X-115700Y-53217D01*
G01X-114060Y-52884D02*
X-113847Y-53092D01*
X-113607Y-53217D01*
X-113393D01*
X-113180Y-53092D01*
X-113020Y-52884D01*
X-112940Y-52592D01*
X-112993Y-52300D01*
X-113127Y-52050D01*
X-113367Y-51884D01*
X-113687Y-51800D01*
X-113873Y-51634D01*
X-113953Y-51342D01*
X-113900Y-51050D01*
X-113767Y-50842D01*
X-113580Y-50717D01*
X-113393D01*
X-113207Y-50800D01*
X-113047Y-51009D01*
G01X-111860Y-52884D02*
X-111647Y-53092D01*
X-111407Y-53217D01*
X-111193D01*
X-110980Y-53092D01*
X-110820Y-52884D01*
X-110740Y-52592D01*
X-110793Y-52300D01*
X-110927Y-52050D01*
X-111167Y-51884D01*
X-111487Y-51800D01*
X-111673Y-51634D01*
X-111753Y-51342D01*
X-111700Y-51050D01*
X-111567Y-50842D01*
X-111380Y-50717D01*
X-111193D01*
X-111007Y-50800D01*
X-110847Y-51009D01*
G01X-107460Y-52884D02*
X-107247Y-53092D01*
X-107007Y-53217D01*
X-106793D01*
X-106580Y-53092D01*
X-106420Y-52884D01*
X-106340Y-52592D01*
X-106393Y-52300D01*
X-106527Y-52050D01*
X-106767Y-51884D01*
X-107087Y-51800D01*
X-107273Y-51634D01*
X-107353Y-51342D01*
X-107300Y-51050D01*
X-107167Y-50842D01*
X-106980Y-50717D01*
X-106793D01*
X-106607Y-50800D01*
X-106447Y-51009D01*
G01X-104167Y-53217D02*
X-105233D01*
Y-50717D01*
X-104167D01*
G01X-104593Y-51925D02*
X-105233D01*
G01X-101913Y-50925D02*
X-102073Y-50800D01*
X-102260Y-50717D01*
X-102473D01*
X-102713Y-50842D01*
X-102900Y-51050D01*
X-103033Y-51300D01*
X-103140Y-51717D01*
X-103167Y-52092D01*
X-103113Y-52467D01*
X-103033Y-52717D01*
X-102873Y-52967D01*
X-102687Y-53134D01*
X-102500Y-53217D01*
X-102313D01*
X-102127Y-53134D01*
X-101967Y-53009D01*
X-101833Y-52842D01*
G01X-100300Y-50717D02*
Y-53217D01*
G01X-100913Y-50717D02*
X-99687D01*
G01X-98420D02*
X-97780D01*
G01X-98100D02*
Y-53217D01*
G01X-98420D02*
X-97780D01*
G01X-95900D02*
X-96113Y-53175D01*
X-96300Y-53009D01*
X-96460Y-52759D01*
X-96567Y-52467D01*
X-96620Y-52134D01*
Y-51800D01*
X-96567Y-51467D01*
X-96460Y-51175D01*
X-96300Y-50925D01*
X-96113Y-50759D01*
X-95900Y-50717D01*
X-95687Y-50759D01*
X-95500Y-50925D01*
X-95340Y-51175D01*
X-95233Y-51467D01*
X-95180Y-51800D01*
Y-52134D01*
X-95233Y-52467D01*
X-95340Y-52759D01*
X-95500Y-53009D01*
X-95687Y-53175D01*
X-95900Y-53217D01*
G01X-94313D02*
Y-50717D01*
X-93087Y-53217D01*
Y-50717D01*
G01X-88713Y-50925D02*
X-88873Y-50800D01*
X-89060Y-50717D01*
X-89273D01*
X-89513Y-50842D01*
X-89700Y-51050D01*
X-89833Y-51300D01*
X-89940Y-51717D01*
X-89967Y-52092D01*
X-89913Y-52467D01*
X-89833Y-52717D01*
X-89673Y-52967D01*
X-89487Y-53134D01*
X-89300Y-53217D01*
X-89113D01*
X-88927Y-53134D01*
X-88767Y-53009D01*
X-88633Y-52842D01*
G01X-87660Y-53217D02*
Y-50717D01*
G01X-86540D02*
Y-53217D01*
G01Y-51967D02*
X-87660D01*
G01X-85567Y-53217D02*
X-84900Y-50717D01*
X-84233Y-53217D01*
G01X-84473Y-52342D02*
X-85327D01*
G01X-83233Y-53217D02*
Y-50717D01*
X-82567D01*
X-82353Y-50842D01*
X-82220Y-51009D01*
X-82167Y-51342D01*
X-82220Y-51675D01*
X-82380Y-51884D01*
X-82567Y-52009D01*
X-83233D01*
G01X-82567D02*
X-82167Y-53217D01*
G01X-80500Y-50717D02*
Y-53217D01*
G01X-81113Y-50717D02*
X-79887D01*
G01X-137400Y-54050D02*
X-135800D01*
G01X-135200D02*
X-133600D01*
G01X-133000D02*
X-131400D01*
G01X-130800D02*
X-129200D01*
G01X-128600D02*
X-127000D01*
G01X-126400D02*
X-124800D01*
G01X-124200D02*
X-122600D01*
G01X-122000D02*
X-120400D01*
G01X-119800D02*
X-118200D01*
G01X-117600D02*
X-116000D01*
G01X-115400D02*
X-113800D01*
G01X-113200D02*
X-111600D01*
G01X-111000D02*
X-109400D01*
G01X-108800D02*
X-107200D01*
G01X-106600D02*
X-105000D01*
G01X-104400D02*
X-102800D01*
G01X-102200D02*
X-100600D01*
G01X-100000D02*
X-98400D01*
G01X-97800D02*
X-96200D01*
G01X-95600D02*
X-94000D01*
G01X-93400D02*
X-91800D01*
G01X-91200D02*
X-89600D01*
G01X-89000D02*
X-87400D01*
G01X-86800D02*
X-85200D01*
G01X-84600D02*
X-83000D01*
G01X-82400D02*
X-80800D01*
G01X-80200D02*
X-78600D01*
G01X-133300Y-55217D02*
Y-57717D01*
G01X-133913Y-55217D02*
X-132687D01*
G01X-131100Y-57717D02*
X-131313Y-57675D01*
X-131500Y-57509D01*
X-131660Y-57259D01*
X-131767Y-56967D01*
X-131820Y-56634D01*
Y-56300D01*
X-131767Y-55967D01*
X-131660Y-55675D01*
X-131500Y-55425D01*
X-131313Y-55259D01*
X-131100Y-55217D01*
X-130887Y-55259D01*
X-130700Y-55425D01*
X-130540Y-55675D01*
X-130433Y-55967D01*
X-130380Y-56300D01*
Y-56634D01*
X-130433Y-56967D01*
X-130540Y-57259D01*
X-130700Y-57509D01*
X-130887Y-57675D01*
X-131100Y-57717D01*
G01X-128900Y-55217D02*
Y-57717D01*
G01X-129513Y-55217D02*
X-128287D01*
G01X-127367Y-57717D02*
X-126700Y-55217D01*
X-126033Y-57717D01*
G01X-126273Y-56842D02*
X-127127D01*
G01X-125033Y-55217D02*
Y-57717D01*
X-123967D01*
G01X-120100Y-55217D02*
Y-57717D01*
G01X-120713Y-55217D02*
X-119487D01*
G01X-118460Y-57717D02*
Y-55217D01*
G01X-117340D02*
Y-57717D01*
G01Y-56467D02*
X-118460D01*
G01X-116020Y-55217D02*
X-115380D01*
G01X-115700D02*
Y-57717D01*
G01X-116020D02*
X-115380D01*
G01X-112913Y-55425D02*
X-113073Y-55300D01*
X-113260Y-55217D01*
X-113473D01*
X-113713Y-55342D01*
X-113900Y-55550D01*
X-114033Y-55800D01*
X-114140Y-56217D01*
X-114167Y-56592D01*
X-114113Y-56967D01*
X-114033Y-57217D01*
X-113873Y-57467D01*
X-113687Y-57634D01*
X-113500Y-57717D01*
X-113313D01*
X-113127Y-57634D01*
X-112967Y-57509D01*
X-112833Y-57342D01*
G01X-111887Y-57717D02*
Y-55217D01*
G01X-110873D02*
X-111887Y-56759D01*
G01X-110713Y-57717D02*
X-111433Y-56050D01*
G01X-109713Y-57717D02*
Y-55217D01*
X-108487Y-57717D01*
Y-55217D01*
G01X-106367Y-57717D02*
X-107433D01*
Y-55217D01*
X-106367D01*
G01X-106793Y-56425D02*
X-107433D01*
G01X-105260Y-57384D02*
X-105047Y-57592D01*
X-104807Y-57717D01*
X-104593D01*
X-104380Y-57592D01*
X-104220Y-57384D01*
X-104140Y-57092D01*
X-104193Y-56800D01*
X-104327Y-56550D01*
X-104567Y-56384D01*
X-104887Y-56300D01*
X-105073Y-56134D01*
X-105153Y-55842D01*
X-105100Y-55550D01*
X-104967Y-55342D01*
X-104780Y-55217D01*
X-104593D01*
X-104407Y-55300D01*
X-104247Y-55509D01*
G01X-103060Y-57384D02*
X-102847Y-57592D01*
X-102607Y-57717D01*
X-102393D01*
X-102180Y-57592D01*
X-102020Y-57384D01*
X-101940Y-57092D01*
X-101993Y-56800D01*
X-102127Y-56550D01*
X-102367Y-56384D01*
X-102687Y-56300D01*
X-102873Y-56134D01*
X-102953Y-55842D01*
X-102900Y-55550D01*
X-102767Y-55342D01*
X-102580Y-55217D01*
X-102393D01*
X-102207Y-55300D01*
X-102047Y-55509D01*
G01X-98100Y-57717D02*
Y-55217D01*
X-98420Y-55717D01*
G01Y-57717D02*
X-97780D01*
G01X-95900Y-55217D02*
X-96113Y-55300D01*
X-96273Y-55509D01*
X-96380Y-55759D01*
X-96460Y-56092D01*
X-96487Y-56467D01*
X-96460Y-56842D01*
X-96380Y-57175D01*
X-96273Y-57425D01*
X-96113Y-57634D01*
X-95900Y-57717D01*
X-95687Y-57634D01*
X-95527Y-57425D01*
X-95420Y-57175D01*
X-95340Y-56842D01*
X-95313Y-56467D01*
X-95340Y-56092D01*
X-95420Y-55759D01*
X-95527Y-55509D01*
X-95687Y-55300D01*
X-95900Y-55217D01*
G01X-93700Y-57800D02*
X-93753Y-57759D01*
Y-57675D01*
X-93700Y-57634D01*
X-93647Y-57675D01*
Y-57759D01*
X-93700Y-57800D01*
G01X-91180Y-57717D02*
Y-55217D01*
X-92167Y-57009D01*
X-90833D01*
G01X-87793Y-57717D02*
Y-55217D01*
X-87100Y-57300D01*
X-86407Y-55217D01*
Y-57717D01*
G01X-85220Y-55217D02*
X-84580D01*
G01X-84900D02*
Y-57717D01*
G01X-85220D02*
X-84580D01*
G01X-83233Y-55217D02*
Y-57717D01*
X-82167D01*
G01X-110500Y159179D02*
X-113000D01*
X-112500Y158859D01*
G01X-110500D02*
Y159499D01*
G01X-111333Y161032D02*
Y161726D01*
G01X-112583Y163072D02*
X-112833Y163232D01*
X-112958Y163419D01*
X-113000Y163632D01*
X-112917Y163899D01*
X-112708Y164086D01*
X-112458Y164139D01*
X-112208Y164112D01*
X-112000Y164006D01*
X-111583Y163472D01*
X-111292Y163232D01*
X-110875Y163072D01*
X-110500Y163019D01*
Y164139D01*
G01X-75533Y-29781D02*
Y-32281D01*
X-74467D01*
G01X-73307Y-30198D02*
X-73147Y-29948D01*
X-72960Y-29823D01*
X-72747Y-29781D01*
X-72480Y-29864D01*
X-72293Y-30073D01*
X-72240Y-30323D01*
X-72267Y-30573D01*
X-72373Y-30781D01*
X-72907Y-31198D01*
X-73147Y-31489D01*
X-73307Y-31906D01*
X-73360Y-32281D01*
X-72240D01*
G01X-68187Y-30948D02*
X-68080Y-30823D01*
X-68000Y-30614D01*
X-67947Y-30323D01*
X-68000Y-30073D01*
X-68107Y-29906D01*
X-68293Y-29781D01*
X-69013D01*
Y-32281D01*
X-68133D01*
X-67947Y-32114D01*
X-67840Y-31864D01*
X-67787Y-31573D01*
X-67840Y-31281D01*
X-68000Y-31031D01*
X-68187Y-30948D01*
X-69013D01*
G01X-66200Y-32281D02*
X-66413Y-32239D01*
X-66600Y-32073D01*
X-66760Y-31823D01*
X-66867Y-31531D01*
X-66920Y-31198D01*
Y-30864D01*
X-66867Y-30531D01*
X-66760Y-30239D01*
X-66600Y-29989D01*
X-66413Y-29823D01*
X-66200Y-29781D01*
X-65987Y-29823D01*
X-65800Y-29989D01*
X-65640Y-30239D01*
X-65533Y-30531D01*
X-65480Y-30864D01*
Y-31198D01*
X-65533Y-31531D01*
X-65640Y-31823D01*
X-65800Y-32073D01*
X-65987Y-32239D01*
X-66200Y-32281D01*
G01X-64000Y-29781D02*
Y-32281D01*
G01X-64613Y-29781D02*
X-63387D01*
G01X-61800D02*
Y-32281D01*
G01X-62413Y-29781D02*
X-61187D01*
G01X-59600Y-32281D02*
X-59813Y-32239D01*
X-60000Y-32073D01*
X-60160Y-31823D01*
X-60267Y-31531D01*
X-60320Y-31198D01*
Y-30864D01*
X-60267Y-30531D01*
X-60160Y-30239D01*
X-60000Y-29989D01*
X-59813Y-29823D01*
X-59600Y-29781D01*
X-59387Y-29823D01*
X-59200Y-29989D01*
X-59040Y-30239D01*
X-58933Y-30531D01*
X-58880Y-30864D01*
Y-31198D01*
X-58933Y-31531D01*
X-59040Y-31823D01*
X-59200Y-32073D01*
X-59387Y-32239D01*
X-59600Y-32281D01*
G01X-58093D02*
Y-29781D01*
X-57400Y-31864D01*
X-56707Y-29781D01*
Y-32281D01*
G01X-52413Y-29989D02*
X-52573Y-29864D01*
X-52760Y-29781D01*
X-52973D01*
X-53213Y-29906D01*
X-53400Y-30114D01*
X-53533Y-30364D01*
X-53640Y-30781D01*
X-53667Y-31156D01*
X-53613Y-31531D01*
X-53533Y-31781D01*
X-53373Y-32031D01*
X-53187Y-32198D01*
X-53000Y-32281D01*
X-52813D01*
X-52627Y-32198D01*
X-52467Y-32073D01*
X-52333Y-31906D01*
G01X-50800Y-32281D02*
X-51013Y-32239D01*
X-51200Y-32073D01*
X-51360Y-31823D01*
X-51467Y-31531D01*
X-51520Y-31198D01*
Y-30864D01*
X-51467Y-30531D01*
X-51360Y-30239D01*
X-51200Y-29989D01*
X-51013Y-29823D01*
X-50800Y-29781D01*
X-50587Y-29823D01*
X-50400Y-29989D01*
X-50240Y-30239D01*
X-50133Y-30531D01*
X-50080Y-30864D01*
Y-31198D01*
X-50133Y-31531D01*
X-50240Y-31823D01*
X-50400Y-32073D01*
X-50587Y-32239D01*
X-50800Y-32281D01*
G01X-49213D02*
Y-29781D01*
X-47987Y-32281D01*
Y-29781D01*
G01X-46987Y-32281D02*
Y-29781D01*
X-46453D01*
X-46240Y-29906D01*
X-46080Y-30073D01*
X-45947Y-30323D01*
X-45840Y-30614D01*
X-45813Y-31031D01*
X-45840Y-31448D01*
X-45947Y-31739D01*
X-46080Y-31989D01*
X-46240Y-32156D01*
X-46453Y-32281D01*
X-46987D01*
G01X-44787Y-29781D02*
Y-31573D01*
X-44680Y-31948D01*
X-44467Y-32198D01*
X-44200Y-32281D01*
X-43933Y-32198D01*
X-43720Y-31948D01*
X-43613Y-31573D01*
Y-29781D01*
G01X-41413Y-29989D02*
X-41573Y-29864D01*
X-41760Y-29781D01*
X-41973D01*
X-42213Y-29906D01*
X-42400Y-30114D01*
X-42533Y-30364D01*
X-42640Y-30781D01*
X-42667Y-31156D01*
X-42613Y-31531D01*
X-42533Y-31781D01*
X-42373Y-32031D01*
X-42187Y-32198D01*
X-42000Y-32281D01*
X-41813D01*
X-41627Y-32198D01*
X-41467Y-32073D01*
X-41333Y-31906D01*
G01X-39800Y-29781D02*
Y-32281D01*
G01X-40413Y-29781D02*
X-39187D01*
G01X-37600Y-32281D02*
X-37813Y-32239D01*
X-38000Y-32073D01*
X-38160Y-31823D01*
X-38267Y-31531D01*
X-38320Y-31198D01*
Y-30864D01*
X-38267Y-30531D01*
X-38160Y-30239D01*
X-38000Y-29989D01*
X-37813Y-29823D01*
X-37600Y-29781D01*
X-37387Y-29823D01*
X-37200Y-29989D01*
X-37040Y-30239D01*
X-36933Y-30531D01*
X-36880Y-30864D01*
Y-31198D01*
X-36933Y-31531D01*
X-37040Y-31823D01*
X-37200Y-32073D01*
X-37387Y-32239D01*
X-37600Y-32281D01*
G01X-35933D02*
Y-29781D01*
X-35267D01*
X-35053Y-29906D01*
X-34920Y-30073D01*
X-34867Y-30406D01*
X-34920Y-30739D01*
X-35080Y-30948D01*
X-35267Y-31073D01*
X-35933D01*
G01X-35267D02*
X-34867Y-32281D01*
G01X-71187Y-47217D02*
X-70013Y-45384D01*
G01X-70600Y-45051D02*
Y-47551D01*
G01X-70013Y-47217D02*
X-71187Y-45384D01*
G01X-71400Y-46301D02*
X-69800D01*
G01X-64560Y-46801D02*
X-64347Y-47009D01*
X-64107Y-47134D01*
X-63893D01*
X-63680Y-47009D01*
X-63520Y-46801D01*
X-63440Y-46509D01*
X-63493Y-46217D01*
X-63627Y-45967D01*
X-63867Y-45801D01*
X-64187Y-45717D01*
X-64373Y-45551D01*
X-64453Y-45259D01*
X-64400Y-44967D01*
X-64267Y-44759D01*
X-64080Y-44634D01*
X-63893D01*
X-63707Y-44717D01*
X-63547Y-44926D01*
G01X-62387Y-44634D02*
Y-46426D01*
X-62280Y-46801D01*
X-62067Y-47051D01*
X-61800Y-47134D01*
X-61533Y-47051D01*
X-61320Y-46801D01*
X-61213Y-46426D01*
Y-44634D01*
G01X-60133Y-47134D02*
Y-44634D01*
X-59467D01*
X-59253Y-44759D01*
X-59120Y-44926D01*
X-59067Y-45259D01*
X-59120Y-45592D01*
X-59280Y-45801D01*
X-59467Y-45926D01*
X-60133D01*
G01X-59467D02*
X-59067Y-47134D01*
G01X-57907D02*
Y-44634D01*
X-56893D01*
G01X-57267Y-45842D02*
X-57907D01*
G01X-55867Y-47134D02*
X-55200Y-44634D01*
X-54533Y-47134D01*
G01X-54773Y-46259D02*
X-55627D01*
G01X-52413Y-44842D02*
X-52573Y-44717D01*
X-52760Y-44634D01*
X-52973D01*
X-53213Y-44759D01*
X-53400Y-44967D01*
X-53533Y-45217D01*
X-53640Y-45634D01*
X-53667Y-46009D01*
X-53613Y-46384D01*
X-53533Y-46634D01*
X-53373Y-46884D01*
X-53187Y-47051D01*
X-53000Y-47134D01*
X-52813D01*
X-52627Y-47051D01*
X-52467Y-46926D01*
X-52333Y-46759D01*
G01X-50267Y-47134D02*
X-51333D01*
Y-44634D01*
X-50267D01*
G01X-50693Y-45842D02*
X-51333D01*
G01X-71187Y55956D02*
X-70013Y57789D01*
G01X-70600Y58122D02*
Y55622D01*
G01X-70013Y55956D02*
X-71187Y57789D01*
G01X-71400Y56872D02*
X-69800D01*
G01X-64587Y56039D02*
Y58539D01*
X-64053D01*
X-63840Y58414D01*
X-63680Y58247D01*
X-63547Y57997D01*
X-63440Y57706D01*
X-63413Y57289D01*
X-63440Y56872D01*
X-63547Y56581D01*
X-63680Y56331D01*
X-63840Y56164D01*
X-64053Y56039D01*
X-64587D01*
G01X-62120Y58539D02*
X-61480D01*
G01X-61800D02*
Y56039D01*
G01X-62120D02*
X-61480D01*
G01X-59067D02*
X-60133D01*
Y58539D01*
X-59067D01*
G01X-59493Y57331D02*
X-60133D01*
G01X-57933Y58539D02*
Y56039D01*
X-56867D01*
G01X-54667D02*
X-55733D01*
Y58539D01*
X-54667D01*
G01X-55093Y57331D02*
X-55733D01*
G01X-52413Y58331D02*
X-52573Y58456D01*
X-52760Y58539D01*
X-52973D01*
X-53213Y58414D01*
X-53400Y58206D01*
X-53533Y57956D01*
X-53640Y57539D01*
X-53667Y57164D01*
X-53613Y56789D01*
X-53533Y56539D01*
X-53373Y56289D01*
X-53187Y56122D01*
X-53000Y56039D01*
X-52813D01*
X-52627Y56122D01*
X-52467Y56247D01*
X-52333Y56414D01*
G01X-50800Y58539D02*
Y56039D01*
G01X-51413Y58539D02*
X-50187D01*
G01X-49133Y56039D02*
Y58539D01*
X-48467D01*
X-48253Y58414D01*
X-48120Y58247D01*
X-48067Y57914D01*
X-48120Y57581D01*
X-48280Y57372D01*
X-48467Y57247D01*
X-49133D01*
G01X-48467D02*
X-48067Y56039D01*
G01X-46720Y58539D02*
X-46080D01*
G01X-46400D02*
Y56039D01*
G01X-46720D02*
X-46080D01*
G01X-43613Y58331D02*
X-43773Y58456D01*
X-43960Y58539D01*
X-44173D01*
X-44413Y58414D01*
X-44600Y58206D01*
X-44733Y57956D01*
X-44840Y57539D01*
X-44867Y57164D01*
X-44813Y56789D01*
X-44733Y56539D01*
X-44573Y56289D01*
X-44387Y56122D01*
X-44200Y56039D01*
X-44013D01*
X-43827Y56122D01*
X-43667Y56247D01*
X-43533Y56414D01*
G01X-71187Y156629D02*
X-70013Y158462D01*
G01X-70600Y158795D02*
Y156295D01*
G01X-70013Y156629D02*
X-71187Y158462D01*
G01X-71400Y157545D02*
X-69800D01*
G01X-64560Y157045D02*
X-64347Y156837D01*
X-64107Y156712D01*
X-63893D01*
X-63680Y156837D01*
X-63520Y157045D01*
X-63440Y157337D01*
X-63493Y157629D01*
X-63627Y157879D01*
X-63867Y158045D01*
X-64187Y158129D01*
X-64373Y158295D01*
X-64453Y158587D01*
X-64400Y158879D01*
X-64267Y159087D01*
X-64080Y159212D01*
X-63893D01*
X-63707Y159129D01*
X-63547Y158920D01*
G01X-62387Y159212D02*
Y157420D01*
X-62280Y157045D01*
X-62067Y156795D01*
X-61800Y156712D01*
X-61533Y156795D01*
X-61320Y157045D01*
X-61213Y157420D01*
Y159212D01*
G01X-60133Y156712D02*
Y159212D01*
X-59467D01*
X-59253Y159087D01*
X-59120Y158920D01*
X-59067Y158587D01*
X-59120Y158254D01*
X-59280Y158045D01*
X-59467Y157920D01*
X-60133D01*
G01X-59467D02*
X-59067Y156712D01*
G01X-57907D02*
Y159212D01*
X-56893D01*
G01X-57267Y158004D02*
X-57907D01*
G01X-55867Y156712D02*
X-55200Y159212D01*
X-54533Y156712D01*
G01X-54773Y157587D02*
X-55627D01*
G01X-52413Y159004D02*
X-52573Y159129D01*
X-52760Y159212D01*
X-52973D01*
X-53213Y159087D01*
X-53400Y158879D01*
X-53533Y158629D01*
X-53640Y158212D01*
X-53667Y157837D01*
X-53613Y157462D01*
X-53533Y157212D01*
X-53373Y156962D01*
X-53187Y156795D01*
X-53000Y156712D01*
X-52813D01*
X-52627Y156795D01*
X-52467Y156920D01*
X-52333Y157087D01*
G01X-50267Y156712D02*
X-51333D01*
Y159212D01*
X-50267D01*
G01X-50693Y158004D02*
X-51333D01*
G01X-75533Y146859D02*
Y144359D01*
X-74467D01*
G01X-72800D02*
Y146859D01*
X-73120Y146359D01*
G01Y144359D02*
X-72480D01*
G01X-68400Y146859D02*
Y144359D01*
G01X-69013Y146859D02*
X-67787D01*
G01X-66200Y144359D02*
X-66413Y144401D01*
X-66600Y144567D01*
X-66760Y144817D01*
X-66867Y145109D01*
X-66920Y145442D01*
Y145776D01*
X-66867Y146109D01*
X-66760Y146401D01*
X-66600Y146651D01*
X-66413Y146817D01*
X-66200Y146859D01*
X-65987Y146817D01*
X-65800Y146651D01*
X-65640Y146401D01*
X-65533Y146109D01*
X-65480Y145776D01*
Y145442D01*
X-65533Y145109D01*
X-65640Y144817D01*
X-65800Y144567D01*
X-65987Y144401D01*
X-66200Y144359D01*
G01X-64533D02*
Y146859D01*
X-63893D01*
X-63680Y146734D01*
X-63520Y146442D01*
X-63467Y146109D01*
X-63520Y145776D01*
X-63653Y145526D01*
X-63893Y145401D01*
X-64533D01*
G01X-59013Y146651D02*
X-59173Y146776D01*
X-59360Y146859D01*
X-59573D01*
X-59813Y146734D01*
X-60000Y146526D01*
X-60133Y146276D01*
X-60240Y145859D01*
X-60267Y145484D01*
X-60213Y145109D01*
X-60133Y144859D01*
X-59973Y144609D01*
X-59787Y144442D01*
X-59600Y144359D01*
X-59413D01*
X-59227Y144442D01*
X-59067Y144567D01*
X-58933Y144734D01*
G01X-57400Y144359D02*
X-57613Y144401D01*
X-57800Y144567D01*
X-57960Y144817D01*
X-58067Y145109D01*
X-58120Y145442D01*
Y145776D01*
X-58067Y146109D01*
X-57960Y146401D01*
X-57800Y146651D01*
X-57613Y146817D01*
X-57400Y146859D01*
X-57187Y146817D01*
X-57000Y146651D01*
X-56840Y146401D01*
X-56733Y146109D01*
X-56680Y145776D01*
Y145442D01*
X-56733Y145109D01*
X-56840Y144817D01*
X-57000Y144567D01*
X-57187Y144401D01*
X-57400Y144359D01*
G01X-55813D02*
Y146859D01*
X-54587Y144359D01*
Y146859D01*
G01X-53587Y144359D02*
Y146859D01*
X-53053D01*
X-52840Y146734D01*
X-52680Y146567D01*
X-52547Y146317D01*
X-52440Y146026D01*
X-52413Y145609D01*
X-52440Y145192D01*
X-52547Y144901D01*
X-52680Y144651D01*
X-52840Y144484D01*
X-53053Y144359D01*
X-53587D01*
G01X-51387Y146859D02*
Y145067D01*
X-51280Y144692D01*
X-51067Y144442D01*
X-50800Y144359D01*
X-50533Y144442D01*
X-50320Y144692D01*
X-50213Y145067D01*
Y146859D01*
G01X-48013Y146651D02*
X-48173Y146776D01*
X-48360Y146859D01*
X-48573D01*
X-48813Y146734D01*
X-49000Y146526D01*
X-49133Y146276D01*
X-49240Y145859D01*
X-49267Y145484D01*
X-49213Y145109D01*
X-49133Y144859D01*
X-48973Y144609D01*
X-48787Y144442D01*
X-48600Y144359D01*
X-48413D01*
X-48227Y144442D01*
X-48067Y144567D01*
X-47933Y144734D01*
G01X-46400Y146859D02*
Y144359D01*
G01X-47013Y146859D02*
X-45787D01*
G01X-44200Y144359D02*
X-44413Y144401D01*
X-44600Y144567D01*
X-44760Y144817D01*
X-44867Y145109D01*
X-44920Y145442D01*
Y145776D01*
X-44867Y146109D01*
X-44760Y146401D01*
X-44600Y146651D01*
X-44413Y146817D01*
X-44200Y146859D01*
X-43987Y146817D01*
X-43800Y146651D01*
X-43640Y146401D01*
X-43533Y146109D01*
X-43480Y145776D01*
Y145442D01*
X-43533Y145109D01*
X-43640Y144817D01*
X-43800Y144567D01*
X-43987Y144401D01*
X-44200Y144359D01*
G01X-42533D02*
Y146859D01*
X-41867D01*
X-41653Y146734D01*
X-41520Y146567D01*
X-41467Y146234D01*
X-41520Y145901D01*
X-41680Y145692D01*
X-41867Y145567D01*
X-42533D01*
G01X-41867D02*
X-41467Y144359D01*
M02*
