G04 ================== begin FILE IDENTIFICATION RECORD ==================*
G04 Layout Name:  ASD.brd*
G04 Film Name:    SMTOP*
G04 File Format:  Gerber RS274X*
G04 File Origin:  Cadence Allegro 17.2-S025*
G04 Origin Date:  Sun Dec 29 17:53:06 2024*
G04 *
G04 Layer:  VIA CLASS/SOLDERMASK_TOP*
G04 Layer:  PIN/SOLDERMASK_TOP*
G04 Layer:  PACKAGE GEOMETRY/SOLDERMASK_TOP*
G04 Layer:  DRC ERROR CLASS/SOLDERMASK_TOP*
G04 Layer:  BOARD GEOMETRY/SOLDERMASK_TOP*
G04 *
G04 Offset:    (0.00 0.00)*
G04 Mirror:    No*
G04 Mode:      Positive*
G04 Rotation:  0*
G04 FullContactRelief:  No*
G04 UndefLineWidth:     0.00*
G04 ================== end FILE IDENTIFICATION RECORD ====================*
%FSLAX25Y25*MOIN*%
%IR0*IPPOS*OFA0.00000B0.00000*MIA0B0*SFA1.00000B1.00000*%
%ADD21R,.13X.086*%
%ADD11R,.086X.13*%
%ADD14C,.044*%
%ADD17R,.06118X.06118*%
%ADD13C,.07874*%
%ADD18R,.07496X.14583*%
%ADD15R,.027X.03*%
%ADD10R,.0474X.05331*%
%ADD20R,.05331X.0474*%
%ADD12R,.0474X.06709*%
%ADD19R,.06709X.0474*%
%ADD16R,.08874X.06118*%
%LPD*%
G75*
G54D10*
X14400Y41577D03*
Y48663D03*
G54D20*
X72223Y86160D03*
X65137D03*
X63737Y105520D03*
X70823D03*
X76777Y140440D03*
X57657Y140200D03*
X64743D03*
X83863Y140440D03*
G54D11*
X13000Y25800D03*
X16040Y140600D03*
X36600Y25800D03*
X39640Y140600D03*
G54D12*
X11863Y66160D03*
X13063Y95440D03*
X13303Y108680D03*
X45297Y68560D03*
X37423D03*
X35137Y55440D03*
X27263D03*
X19737Y66160D03*
X27663Y45000D03*
X35537D03*
X20937Y95440D03*
X21177Y108680D03*
X69857Y121240D03*
X61983D03*
X103263Y129560D03*
X105737Y115400D03*
X97863D03*
X87977Y105080D03*
X80103D03*
X80263Y120000D03*
X88137D03*
X111137Y129560D03*
G54D21*
X135080Y63720D03*
Y87320D03*
X136040Y104360D03*
Y127960D03*
G54D13*
X20000Y85760D03*
X142080Y20000D03*
G54D14*
X11160Y119400D03*
X47720Y10480D03*
X47480Y91920D03*
X58080Y69720D03*
X83200Y94760D03*
X111137Y140623D03*
G54D15*
X37400Y79580D03*
X29900D03*
X33600Y86580D03*
X105240Y95140D03*
X97740D03*
X101440Y102140D03*
G54D16*
X43888Y99676D03*
G54D17*
X48415Y121920D03*
X39360D03*
G54D18*
X64600Y26115D03*
Y50525D03*
X103080Y29075D03*
Y53485D03*
G54D19*
X69280Y66743D03*
Y74617D03*
X108560Y69343D03*
X92160Y69823D03*
X108560Y77217D03*
X92160Y77697D03*
X132400Y37903D03*
Y45777D03*
M02*
