G04 ================== begin FILE IDENTIFICATION RECORD ==================*
G04 Layout Name:  ASD.brd*
G04 Film Name:    TOP*
G04 File Format:  Gerber RS274X*
G04 File Origin:  Cadence Allegro 17.2-S025*
G04 Origin Date:  Sun Dec 29 17:53:06 2024*
G04 *
G04 Layer:  ETCH/TOP*
G04 Layer:  PIN/TOP*
G04 Layer:  VIA CLASS/TOP*
G04 *
G04 Offset:    (0.00 0.00)*
G04 Mirror:    No*
G04 Mode:      Positive*
G04 Rotation:  0*
G04 FullContactRelief:  No*
G04 UndefLineWidth:     4.00*
G04 ================== end FILE IDENTIFICATION RECORD ====================*
%FSLAX25Y25*MOIN*%
%IR0*IPPOS*OFA0.00000B0.00000*MIA0B0*SFA1.00000B1.00000*%
%ADD21R,.12X.076*%
%ADD11R,.076X.12*%
%ADD14C,.034*%
%ADD17R,.05118X.05118*%
%ADD13C,.03937*%
%ADD18R,.06496X.13583*%
%ADD15R,.017X.02*%
%ADD10R,.0374X.04331*%
%ADD20R,.04331X.0374*%
%ADD12R,.0374X.05709*%
%ADD19R,.05709X.0374*%
%ADD16R,.07874X.05118*%
%ADD22C,.016*%
%ADD23C,.026*%
%ADD24C,.018*%
G75*
%LPD*%
G75*
G54D10*
X14400Y41577D03*
Y48663D03*
G54D20*
X72223Y86160D03*
X65137D03*
X63737Y105520D03*
X70823D03*
X76777Y140440D03*
X57657Y140200D03*
X64743D03*
X83863Y140440D03*
G54D11*
X13000Y25800D03*
X16040Y140600D03*
X36600Y25800D03*
X39640Y140600D03*
G54D12*
X11863Y66160D03*
X13063Y95440D03*
X13303Y108680D03*
X45297Y68560D03*
X37423D03*
X35137Y55440D03*
X27263D03*
X19737Y66160D03*
X27663Y45000D03*
X35537D03*
X20937Y95440D03*
X21177Y108680D03*
X69857Y121240D03*
X61983D03*
X103263Y129560D03*
X105737Y115400D03*
X97863D03*
X87977Y105080D03*
X80103D03*
X80263Y120000D03*
X88137D03*
X111137Y129560D03*
G54D21*
X135080Y63720D03*
Y87320D03*
X136040Y104360D03*
Y127960D03*
G54D22*
G01X11863Y66160D02*
Y70315D01*
X11840Y70338D01*
Y74040D01*
X17380Y79580D01*
X29900D01*
G01X14400Y48663D02*
Y52129D01*
X14440Y52169D01*
Y54800D01*
X11863Y57377D01*
Y66160D01*
G01X13063Y95440D02*
Y104285D01*
X13303Y104525D01*
Y108680D01*
G01X64600Y50800D02*
Y54069D01*
X53884Y64785D01*
X48087D01*
X45297Y67575D01*
Y68560D01*
G01X19737Y66160D02*
X24840D01*
X27263Y63737D01*
Y55440D01*
G01X37423Y68560D02*
X37103Y68880D01*
X32880D01*
X31280Y67280D01*
Y63920D01*
X35137Y60063D01*
Y55440D01*
G01X65137Y86160D02*
X61671D01*
X61631Y86200D01*
X58040D01*
X51420Y79580D01*
X37400D01*
G01X20937Y95440D02*
X24890D01*
X33600Y86730D01*
G01Y86580D02*
Y86730D01*
G01X47480Y91920D02*
X34960D01*
X33600Y90560D01*
Y86730D01*
G01X64600Y50525D02*
Y50800D01*
G01X103080Y57029D02*
X95189Y64920D01*
X78720D01*
X64600Y50800D01*
G01X92160Y69823D02*
X88005D01*
X87988Y69840D01*
X83040D01*
X78263Y74617D01*
X69280D01*
G01D02*
Y78847D01*
X65137Y82990D01*
Y86160D01*
G01X92160Y77697D02*
Y84600D01*
X90600Y86160D01*
X72223D01*
G01X70823Y105520D02*
Y98497D01*
X72223Y97097D01*
Y86160D01*
G01X63737Y105520D02*
Y115331D01*
X61983Y117085D01*
Y121240D01*
G01D02*
Y129063D01*
X64743Y131823D01*
Y140200D01*
G01X70823Y105520D02*
X76493D01*
X76933Y105080D01*
X80103D01*
G01X80263Y120000D02*
X75879D01*
X74639Y121240D01*
X69857D01*
G01X64743Y140200D02*
X73071D01*
X73311Y140440D01*
X76777D01*
G01X108560Y69343D02*
Y62509D01*
X107248Y61197D01*
G01D02*
X114643D01*
X117560Y58280D01*
Y56462D01*
X128245Y45777D01*
X132400D01*
G01X103080Y53485D02*
Y57029D01*
G01D02*
X107248Y61197D01*
G01X83200Y94760D02*
X92120D01*
X96240Y90640D01*
Y93640D01*
X97740Y95140D01*
G01X108560Y77217D02*
Y91670D01*
X105240Y94990D01*
Y95140D01*
G01X97863Y115400D02*
Y111245D01*
X97920Y111188D01*
Y108160D01*
X101440Y104640D01*
Y102140D01*
G01X83863Y140440D02*
X84383Y139920D01*
X90040D01*
X91640Y138320D01*
Y128960D01*
X97863Y122737D01*
Y115400D01*
G01X103263Y129560D02*
Y125405D01*
X103360Y125308D01*
Y123840D01*
X105737Y121463D01*
Y115400D01*
G01X87977Y105080D02*
Y115685D01*
X88137Y115845D01*
Y120000D01*
G54D13*
X20000Y85760D03*
X142080Y20000D03*
G54D23*
G01X39360Y121920D02*
X35001D01*
X34921Y121840D01*
X19280D01*
X16040Y125080D01*
Y140600D01*
G01X135080Y63720D02*
X136920Y65560D01*
X144480D01*
X147080Y68160D01*
Y142120D01*
X138640Y150560D01*
X18640D01*
X16040Y147960D01*
Y140600D01*
G01X47720Y10480D02*
X65560D01*
X66800Y11720D01*
G01X36600Y25800D02*
X42200D01*
X45480Y22520D01*
X55957D01*
X59552Y26115D01*
X64600D01*
G01X36600Y25800D02*
X37560Y26760D01*
Y36800D01*
X35537Y38823D01*
Y45000D01*
G01X66800Y11720D02*
X64600Y13920D01*
Y26115D01*
G01X103080Y25531D02*
X91789Y14240D01*
X69320D01*
X66800Y11720D01*
G01X69280Y66743D02*
X61057D01*
X58080Y69720D01*
G01X103080Y29075D02*
Y25531D01*
G01D02*
X113851Y14760D01*
X129160D01*
X132400Y18000D01*
Y37903D01*
G01X135080Y63720D02*
Y54608D01*
X143120Y46568D01*
Y43968D01*
X137055Y37903D01*
X132400D01*
G54D14*
X11160Y119400D03*
X47720Y10480D03*
X47480Y91920D03*
X58080Y69720D03*
X83200Y94760D03*
X111137Y140623D03*
G54D24*
G01X14400Y41577D02*
Y34600D01*
X13000Y33200D01*
Y25800D01*
G01X27663Y45000D02*
X24393D01*
X24353Y44960D01*
X21960D01*
X18577Y41577D01*
X14400D01*
G01X21177Y108680D02*
Y112935D01*
X18952Y115160D01*
X15400D01*
X11160Y119400D01*
G01X48415Y121920D02*
X55360D01*
X57160Y120120D01*
Y102636D01*
X54200Y99676D01*
X43888D01*
G01X39640Y140600D02*
Y130512D01*
X41232Y128920D01*
X45374D01*
X48415Y125879D01*
Y121920D01*
G01X39640Y140600D02*
X49360D01*
X49760Y140200D01*
X57657D01*
G01X135080Y87320D02*
Y95720D01*
X136040Y96680D01*
Y104360D01*
G01Y127960D02*
X123280D01*
X121680Y129560D01*
X111137D01*
G01D02*
Y140623D01*
G54D15*
X37400Y79580D03*
X29900D03*
X33600Y86580D03*
X105240Y95140D03*
X97740D03*
X101440Y102140D03*
G54D16*
X43888Y99676D03*
G54D17*
X48415Y121920D03*
X39360D03*
G54D18*
X64600Y26115D03*
Y50525D03*
X103080Y29075D03*
Y53485D03*
G54D19*
X69280Y66743D03*
Y74617D03*
X108560Y69343D03*
X92160Y69823D03*
X108560Y77217D03*
X92160Y77697D03*
X132400Y37903D03*
Y45777D03*
M02*
